<?xml version="1.0" encoding="UTF-8" standalone="no"?>
<svg width="15px" height="32px" viewBox="0 0 15 32" version="1.1" xmlns="http://www.w3.org/2000/svg" xmlns:xlink="http://www.w3.org/1999/xlink">
    <!-- Generator: Sketch 3.6.1 (26313) - http://www.bohemiancoding.com/sketch -->
    <title>Facebook</title>
    <desc>Created with Sketch.</desc>
    <defs></defs>
    <g id="Page-1" stroke="none" stroke-width="1" fill="none" fill-rule="evenodd" stroke-linecap="round" stroke-linejoin="round">
        <g id="HP-(white)" transform="translate(-710.000000, -2373.000000)" stroke="#FFFFFF">
            <g id="Footer" transform="translate(0.000000, 2017.000000)">
                <g id="Social-Links" transform="translate(588.000000, 357.000000)">
                    <g id="Facebook" transform="translate(123.000000, 0.000000)">
                        <path d="M3,14 L3,29 C3,29.55 3.45,30 4,30 L7,30 C7.55,30 8,29.55 8,29 L8,14" id="Stroke-1"></path>
                        <path d="M3,9 L1,9 C0.45,9 0,9.45 0,10 L0,13 C0,13.55 0.45,14 1,14 L3,14" id="Stroke-3"></path>
                        <path d="M7.998,14 L10.998,14 C11.548,14 12.086,13.559 12.194,13.019 L12.802,9.981 C12.91,9.441 12.548,9 11.998,9 L7.998,9" id="Stroke-5"></path>
                        <path d="M8,0.0156 L12,0.0156 L12,5.0156 L8,5.0156 L7.998,9.0076" id="Stroke-7"></path>
                        <path d="M3,9.0156 L3,5.0156" id="Stroke-9"></path>
                        <path d="M7.9902,0.0254 C5.2342,0.0254 3.0002,2.2594 3.0002,5.0154" id="Stroke-11"></path>
                    </g>
                </g>
            </g>
        </g>
    </g>
</svg>