<?xml version="1.0" encoding="UTF-8" standalone="no"?>
<svg width="38px" height="30px" viewBox="0 0 38 30" version="1.1" xmlns="http://www.w3.org/2000/svg" xmlns:xlink="http://www.w3.org/1999/xlink">
    <!-- Generator: Sketch 3.6.1 (26313) - http://www.bohemiancoding.com/sketch -->
    <title>Twitter</title>
    <desc>Created with Sketch.</desc>
    <defs>
        <path id="path-1" d="M0,0 L37.52,0 L37.52,30 L0,30"></path>
    </defs>
    <g id="Page-1" stroke="none" stroke-width="1" fill="none" fill-rule="evenodd">
        <g id="HP-(white)" transform="translate(-758.000000, -2374.000000)">
            <g id="Footer" transform="translate(0.000000, 2017.000000)">
                <g id="Social-Links" transform="translate(588.000000, 357.000000)">
                    <g id="Twitter" transform="translate(170.000000, 0.000000)">
                        <mask id="mask-2" fill="white">
                            <use xlink:href="#path-1"></use>
                        </mask>
                        <g id="Clip-2"></g>
                        <path d="M25.01725,0 C20.47975,0 17.0585,3.52125 17.0585,8.19125 C17.0585,8.26 17.05975,8.33 17.061,8.39875 C12.2185,7.7875 7.756,5.39375 4.6435,1.6925 C4.40475,1.40875 4.0535,1.2475 3.68725,1.2475 C3.6535,1.2475 3.621,1.24875 3.5885,1.25125 C3.186,1.28375 2.8235,1.5075 2.616,1.8525 C1.8635,3.1025 1.46475,4.53625 1.46475,5.99875 C1.46475,7.31 1.7835,8.57625 2.36975,9.70875 C2.24725,9.7375 2.12725,9.785 2.016,9.8525 C1.63725,10.0775 1.406,10.485 1.406,10.925 L1.406,11.01625 C1.406,13.42 2.48475,15.62875 4.22975,17.14875 C3.9435,17.48125 3.851,17.94 3.9885,18.3575 C4.73475,20.625 6.431,22.4075 8.571,23.33875 C6.8335,24.12875 4.93475,24.53875 2.961,24.53875 C2.42225,24.53875 1.89725,24.5075 1.401,24.4475 C1.34975,24.44125 1.29975,24.43875 1.24975,24.43875 C0.72475,24.43875 0.24975,24.76875 0.071,25.2725 C-0.124,25.825 0.09225,26.44 0.58975,26.75 C3.956,28.845 8.19225,30 12.51725,30 C20.65725,30 25.69975,26.28 28.496,23.16 C31.9635,19.29 33.95225,14.1275 33.95225,8.99375 C33.95225,8.90125 33.95225,8.80875 33.951,8.71625 C35.226,7.7375 36.33725,6.575 37.2585,5.25125 C37.42225,5.04 37.521,4.775 37.521,4.4875 C37.521,3.8 36.96975,3.2425 36.2835,3.2375 L36.26725,3.2375 C36.221,3.2375 36.176,3.24 36.12975,3.245 C36.08975,3.24875 36.04975,3.255 36.00975,3.26375 C36.19725,2.8975 36.356,2.51625 36.486,2.1225 C36.64725,1.63 36.4885,1.08875 36.086,0.7625 C35.8585,0.57625 35.5785,0.4825 35.29725,0.4825 C35.0835,0.4825 34.86725,0.5375 34.67225,0.65 C33.5685,1.2875 32.37225,1.7625 31.10725,2.065 C29.56975,0.795 27.26225,0 25.01725,0 M36.26725,4.4875 L36.2735,4.4875 M25.01725,1.25 C27.08225,1.25 29.426,2.065 30.73975,3.4225 C32.3735,3.1075 33.9135,2.53125 35.2985,1.7325 C34.7635,3.36 33.6235,4.72375 32.141,5.58625 C33.591,5.415 34.981,5.04375 36.26725,4.4875 C35.3035,5.88375 34.08725,7.11125 32.6835,8.09625 C32.696,8.39375 32.70225,8.69375 32.70225,8.99375 C32.70225,18.20375 25.73225,28.75 12.51725,28.75 C8.46225,28.75 4.426,27.66625 1.24975,25.68875 C1.811,25.75625 2.3835,25.78875 2.961,25.78875 C6.3285,25.78875 9.426,24.675 11.88725,22.8025 C8.741,22.74875 6.086,20.7325 5.176,17.96625 C5.6135,18.0475 6.06475,18.09125 6.5285,18.09125 C7.17975,18.09125 7.81725,18.0075 8.4185,17.84625 C5.13225,17.21 2.656,14.3925 2.656,11.01625 L2.656,10.925 C3.626,11.4475 4.731,11.7625 5.911,11.79875 C3.98225,10.5475 2.71475,8.4175 2.71475,5.99875 C2.71475,4.72125 3.0685,3.5225 3.686,2.4975 C7.2285,6.70875 12.52475,9.485 18.496,9.7775 C18.37225,9.2675 18.3085,8.73 18.3085,8.19125 C18.3085,4.34125 21.04725,1.25 25.01725,1.25" id="Fill-1" fill="#FFFFFF" mask="url(#mask-2)"></path>
                    </g>
                </g>
            </g>
        </g>
    </g>
</svg>